<?xml version="1.0" standalone="no"?>
<!DOCTYPE svg PUBLIC "-//W3C//DTD SVG 20010904//EN"
 "http://www.w3.org/TR/2001/REC-SVG-20010904/DTD/svg10.dtd">
<svg version="1.0" xmlns="http://www.w3.org/2000/svg"
 width="300.000000pt" height="65.000000pt" viewBox="0 0 300.000000 65.000000"
 preserveAspectRatio="xMidYMid meet">
<metadata>
Created by potrace 1.10, written by Peter Selinger 2001-2011
</metadata>
<g transform="translate(0.000000,65.000000) scale(0.100000,-0.100000)"
fill="#000000" stroke="none">
<path d="M183 618 c-88 -42 -174 -157 -172 -230 l1 -33 10 28 c17 46 23 31 24
-58 1 -87 -7 -106 -24 -57 l-10 27 -1 -30 c-1 -43 41 -127 86 -172 40 -40 119
-83 152 -83 33 0 34 20 2 26 -17 4 -31 10 -31 15 0 5 10 5 23 0 13 -5 49 -8
80 -8 48 2 57 -1 57 -15 0 -25 27 -23 87 7 62 31 127 99 156 163 30 66 30 188
0 254 -44 97 -161 189 -238 187 -28 0 -28 -1 -7 -9 40 -17 23 -25 -46 -24 -95
3 -101 4 -67 19 l30 14 -35 0 c-19 0 -54 -9 -77 -21z m267 -69 c88 -48 137
-144 127 -250 -15 -168 -176 -274 -336 -220 -63 22 -126 79 -153 140 -25 54
-27 150 -5 202 19 46 81 115 120 136 71 36 173 33 247 -8z"/>
<path d="M305 505 c-5 -2 -22 -6 -37 -9 -35 -8 -85 -50 -105 -89 -19 -38 -21
-123 -3 -157 34 -66 90 -102 159 -103 65 -1 118 28 152 82 71 112 8 250 -126
274 -16 3 -34 4 -40 2z m91 -96 c33 -31 47 -79 34 -115 -17 -43 -49 -73 -87
-80 -93 -18 -162 80 -117 167 30 59 121 74 170 28z"/>
<path d="M1370 455 c0 -55 0 -55 -20 -35 -27 27 -63 25 -97 -4 -25 -22 -28
-31 -28 -84 0 -50 4 -65 24 -86 32 -34 83 -36 105 -4 l16 22 0 -22 c0 -18 6
-22 30 -22 l30 0 0 145 0 145 -30 0 c-30 0 -30 -1 -30 -55z m-10 -85 c17 -31
8 -81 -17 -97 -19 -13 -24 -12 -42 6 -37 37 -21 111 24 111 14 0 29 -8 35 -20z"/>
<path d="M2180 365 l0 -145 30 0 30 0 0 80 c0 78 1 80 27 86 41 11 55 -17 51
-98 l-4 -68 34 0 c31 0 34 2 28 23 -3 12 -6 52 -6 90 0 54 -4 71 -20 87 -26
26 -68 25 -98 -2 l-25 -23 6 58 6 57 -30 0 -29 0 0 -145z"/>
<path d="M801 426 c-49 -27 -65 -99 -36 -156 19 -37 43 -50 95 -50 43 0 90 33
90 65 0 23 -49 19 -70 -7 -17 -21 -18 -21 -44 -5 -28 19 -35 61 -16 98 13 23
58 26 66 4 8 -20 64 -20 64 -1 0 8 -14 26 -31 40 -34 29 -79 33 -118 12z"/>
<path d="M1031 426 c-65 -36 -66 -161 -2 -196 37 -19 100 -12 126 14 90 90
-14 243 -124 182z m89 -57 c22 -40 0 -109 -33 -109 -45 0 -65 96 -26 124 24
17 45 12 59 -15z"/>
<path d="M1521 426 c-33 -18 -50 -53 -51 -104 0 -62 40 -102 103 -102 47 0 97
29 97 56 0 18 -39 18 -64 -1 -34 -26 -69 -15 -78 25 -2 11 11 13 71 11 l74 -3
-6 44 c-10 74 -80 110 -146 74z m80 -45 c31 -25 22 -33 -37 -29 l-49 3 23 23
c27 27 33 27 63 3z"/>
<path d="M1745 429 c-27 -17 -35 -29 -35 -60 0 -34 14 -45 73 -60 35 -8 47
-16 45 -28 -4 -22 -56 -27 -64 -7 -7 18 -64 22 -64 6 0 -6 11 -22 25 -35 51
-52 165 -21 165 45 0 22 -7 33 -30 45 -16 8 -36 15 -45 15 -9 0 -25 5 -36 11
-16 8 -18 13 -8 25 15 18 48 18 55 -1 6 -16 64 -21 64 -6 0 5 -8 19 -18 31
-21 26 -96 37 -127 19z"/>
<path d="M1930 290 l0 -150 30 0 c30 0 30 0 30 57 0 54 1 55 18 40 60 -55 145
25 127 120 -13 71 -97 112 -127 63 -7 -11 -16 -20 -19 -20 -4 0 -5 9 -2 20 5
17 0 20 -26 20 l-31 0 0 -150z m140 81 c16 -31 12 -69 -11 -92 -18 -18 -23
-19 -42 -6 -25 16 -35 80 -16 103 17 20 57 17 69 -5z"/>
<path d="M2452 415 c-35 -30 -48 -82 -32 -131 13 -40 52 -64 103 -64 37 0 87
32 87 56 0 19 -44 18 -60 -1 -16 -19 -44 -19 -64 1 -33 32 -20 40 60 36 l77
-4 -7 38 c-15 84 -103 121 -164 69z m89 -25 c36 -20 23 -40 -26 -40 -50 0 -57
11 -23 34 27 19 24 19 49 6z"/>
<path d="M2655 330 l0 -110 30 0 31 0 -4 65 c-5 72 12 105 52 105 15 0 21 7
22 25 2 20 -3 25 -21 25 -13 0 -31 -10 -39 -22 l-16 -22 0 22 c0 17 -6 22 -27
22 l-28 0 0 -110z"/>
<path d="M2854 430 c-35 -14 -54 -50 -54 -103 0 -40 5 -53 29 -78 41 -40 109
-41 149 -2 l26 27 -27 9 c-20 6 -31 5 -43 -7 -22 -22 -50 -20 -68 6 -9 12 -16
25 -16 28 0 3 34 5 75 5 81 -1 81 -1 64 57 -15 56 -76 82 -135 58z m79 -52
l22 -23 -27 -3 c-16 -2 -40 -2 -55 0 l-28 3 23 23 c12 12 27 22 32 22 6 0 20
-10 33 -22z"/>
</g>
</svg>
